# xmcd
#
# Track frame offsets: 
#        182
#        6835
#        34210
#        89922
#        126640
#        175605
#
# Disc length: 2448 seconds
#
# Revision: 2
# Processed by: cddbd v1.5.2PL0 Copyright (c) Steve Scherf et al.
# Submitted via: ExactAudioCopy v0.99pb4
#
DISCID=4f098e06
DTITLE=Mike Bloomfield And Al Kooper - The Live Adventures Of Mike Blo
DTITLE=omfield And Al Kooper (2)
DYEAR=1968
DGENRE=Blues-Rock
TTITLE0=Opening Speech
TTITLE1=Sonny Boy Williamson
TTITLE2=No More Lonely Nights
TTITLE3=Dear Mr. Fantasy
TTITLE4=Don't Throw Your Love On Me So Strong
TTITLE5=Finale - Refugee
EXTD=
EXTT0=
EXTT1=
EXTT2=
EXTT3=
EXTT4=
EXTT5=
PLAYORDER=
